<svg width="260" height="38" viewBox="0 0 260 38" fill="none" xmlns="http://www.w3.org/2000/svg">
<path d="M32.5471 6.1649L21.9182 12.3317V0H14.392V12.3317L3.76311 6.1649L0 12.7155L10.627 18.8804L0 25.0453L3.76311 31.5958L14.392 25.4309V37.7626H21.9182V25.4309L32.5471 31.5958L36.3102 25.0453L25.6832 18.8804L36.3102 12.7155L32.5471 6.1649Z" fill="#00D8F0"/>
<mask id="path-2-outside-1_173_64" maskUnits="userSpaceOnUse" x="50.4136" y="2.38131" width="208" height="33" fill="black">
<rect fill="white" x="50.4136" y="2.38131" width="208" height="33"/>
<path d="M50.9328 34.3813V2.97036H54.029V16.7463H69.3306V2.97036H72.4268V34.3813H69.3306V19.8425H54.029V34.3813H50.9328ZM96.0284 29.894C94.2784 32.8556 90.5988 34.83 86.5154 34.83C80.1883 34.83 75.7459 30.1633 75.7459 23.1631C75.7459 16.2078 80.2332 11.5411 86.6949 11.5411C93.4258 11.5411 97.7336 16.6566 97.7336 24.2849H78.887C79.3358 28.8171 82.432 31.7338 86.6051 31.7338C89.5667 31.7338 92.2142 30.253 93.5155 28.0094L96.0284 29.894ZM78.9319 21.5926H94.413C93.6053 17.3297 90.7783 14.6373 86.6949 14.6373C82.6115 14.6373 79.5152 17.3745 78.9319 21.5926ZM122.533 34.3813H119.437V31.4646C117.597 33.5736 114.905 34.7852 111.54 34.7852C104.943 34.7852 100.142 30.1184 100.142 23.1182C100.142 16.163 104.943 11.4962 111.54 11.4962C114.905 11.4962 117.597 12.7078 119.437 14.8168V11.9449H122.533V34.3813ZM119.437 23.1182C119.437 18.0027 116.655 14.368 111.899 14.368C107.142 14.368 103.238 18.0027 103.238 23.1182C103.238 28.2786 107.142 31.9133 111.899 31.9133C116.655 31.9133 119.437 28.2786 119.437 23.1182ZM125.863 2.97036H128.959V34.3813H125.863V2.97036ZM130.946 15.0411V11.9449H133.863V5.7076H136.959V11.9449H143.645V15.0411H136.959V28.2337C136.959 30.5223 138.081 31.7338 140.145 31.7338C141.402 31.7338 142.568 31.2851 143.69 30.4325L144.902 32.9005C143.466 34.1569 141.805 34.83 139.966 34.83C136.376 34.83 133.863 32.1377 133.863 28.2337V15.0411H130.946ZM147.092 2.97036H150.188V14.1886C151.669 12.4834 153.778 11.4962 156.335 11.4962C161.271 11.4962 164.592 15.1758 164.592 20.74V34.3813H161.496V20.74C161.496 17.0155 159.207 14.5475 155.752 14.5475C153.149 14.5475 151.13 15.8937 150.188 18.1374V34.3813H147.092V2.97036ZM179.382 31.2402L171.484 8.62433V34.3813H168.343V2.97036H172.785L181.311 27.3812L189.837 2.97036H194.234V34.3813H191.138V8.48971L183.196 31.2402H179.382ZM219.93 34.3813H216.833V31.4646C214.994 33.5736 212.301 34.7852 208.936 34.7852C202.34 34.7852 197.538 30.1184 197.538 23.1182C197.538 16.163 202.34 11.4962 208.936 11.4962C212.301 11.4962 214.994 12.7078 216.833 14.8168V11.9449H219.93V34.3813ZM216.833 23.1182C216.833 18.0027 214.051 14.368 209.295 14.368C204.538 14.368 200.634 18.0027 200.634 23.1182C200.634 28.2786 204.538 31.9133 209.295 31.9133C214.051 31.9133 216.833 28.2786 216.833 23.1182ZM221.913 15.0411V11.9449H224.83V5.7076H227.926V11.9449H234.612V15.0411H227.926V28.2337C227.926 30.5223 229.048 31.7338 231.112 31.7338C232.368 31.7338 233.535 31.2851 234.657 30.4325L235.869 32.9005C234.433 34.1569 232.772 34.83 230.932 34.83C227.343 34.83 224.83 32.1377 224.83 28.2337V15.0411H221.913ZM256.096 29.894C254.345 32.8556 250.666 34.83 246.582 34.83C240.255 34.83 235.813 30.1633 235.813 23.1631C235.813 16.2078 240.3 11.5411 246.762 11.5411C253.493 11.5411 257.801 16.6566 257.801 24.2849H238.954C239.403 28.8171 242.499 31.7338 246.672 31.7338C249.634 31.7338 252.281 30.253 253.583 28.0094L256.096 29.894ZM238.999 21.5926H254.48C253.672 17.3297 250.845 14.6373 246.762 14.6373C242.679 14.6373 239.582 17.3745 238.999 21.5926Z"/>
</mask>
<path d="M50.9328 34.3813V2.97036H54.029V16.7463H69.3306V2.97036H72.4268V34.3813H69.3306V19.8425H54.029V34.3813H50.9328ZM96.0284 29.894C94.2784 32.8556 90.5988 34.83 86.5154 34.83C80.1883 34.83 75.7459 30.1633 75.7459 23.1631C75.7459 16.2078 80.2332 11.5411 86.6949 11.5411C93.4258 11.5411 97.7336 16.6566 97.7336 24.2849H78.887C79.3358 28.8171 82.432 31.7338 86.6051 31.7338C89.5667 31.7338 92.2142 30.253 93.5155 28.0094L96.0284 29.894ZM78.9319 21.5926H94.413C93.6053 17.3297 90.7783 14.6373 86.6949 14.6373C82.6115 14.6373 79.5152 17.3745 78.9319 21.5926ZM122.533 34.3813H119.437V31.4646C117.597 33.5736 114.905 34.7852 111.54 34.7852C104.943 34.7852 100.142 30.1184 100.142 23.1182C100.142 16.163 104.943 11.4962 111.54 11.4962C114.905 11.4962 117.597 12.7078 119.437 14.8168V11.9449H122.533V34.3813ZM119.437 23.1182C119.437 18.0027 116.655 14.368 111.899 14.368C107.142 14.368 103.238 18.0027 103.238 23.1182C103.238 28.2786 107.142 31.9133 111.899 31.9133C116.655 31.9133 119.437 28.2786 119.437 23.1182ZM125.863 2.97036H128.959V34.3813H125.863V2.97036ZM130.946 15.0411V11.9449H133.863V5.7076H136.959V11.9449H143.645V15.0411H136.959V28.2337C136.959 30.5223 138.081 31.7338 140.145 31.7338C141.402 31.7338 142.568 31.2851 143.69 30.4325L144.902 32.9005C143.466 34.1569 141.805 34.83 139.966 34.83C136.376 34.83 133.863 32.1377 133.863 28.2337V15.0411H130.946ZM147.092 2.97036H150.188V14.1886C151.669 12.4834 153.778 11.4962 156.335 11.4962C161.271 11.4962 164.592 15.1758 164.592 20.74V34.3813H161.496V20.74C161.496 17.0155 159.207 14.5475 155.752 14.5475C153.149 14.5475 151.13 15.8937 150.188 18.1374V34.3813H147.092V2.97036ZM179.382 31.2402L171.484 8.62433V34.3813H168.343V2.97036H172.785L181.311 27.3812L189.837 2.97036H194.234V34.3813H191.138V8.48971L183.196 31.2402H179.382ZM219.93 34.3813H216.833V31.4646C214.994 33.5736 212.301 34.7852 208.936 34.7852C202.34 34.7852 197.538 30.1184 197.538 23.1182C197.538 16.163 202.34 11.4962 208.936 11.4962C212.301 11.4962 214.994 12.7078 216.833 14.8168V11.9449H219.93V34.3813ZM216.833 23.1182C216.833 18.0027 214.051 14.368 209.295 14.368C204.538 14.368 200.634 18.0027 200.634 23.1182C200.634 28.2786 204.538 31.9133 209.295 31.9133C214.051 31.9133 216.833 28.2786 216.833 23.1182ZM221.913 15.0411V11.9449H224.83V5.7076H227.926V11.9449H234.612V15.0411H227.926V28.2337C227.926 30.5223 229.048 31.7338 231.112 31.7338C232.368 31.7338 233.535 31.2851 234.657 30.4325L235.869 32.9005C234.433 34.1569 232.772 34.83 230.932 34.83C227.343 34.83 224.83 32.1377 224.83 28.2337V15.0411H221.913ZM256.096 29.894C254.345 32.8556 250.666 34.83 246.582 34.83C240.255 34.83 235.813 30.1633 235.813 23.1631C235.813 16.2078 240.3 11.5411 246.762 11.5411C253.493 11.5411 257.801 16.6566 257.801 24.2849H238.954C239.403 28.8171 242.499 31.7338 246.672 31.7338C249.634 31.7338 252.281 30.253 253.583 28.0094L256.096 29.894ZM238.999 21.5926H254.48C253.672 17.3297 250.845 14.6373 246.762 14.6373C242.679 14.6373 239.582 17.3745 238.999 21.5926Z" fill="#002F34"/>
<path d="M50.9328 34.3813H50.6575V34.6566H50.9328V34.3813ZM50.9328 2.97036V2.69507H50.6575V2.97036H50.9328ZM54.029 2.97036H54.3043V2.69507H54.029V2.97036ZM54.029 16.7463H53.7537V17.0216H54.029V16.7463ZM69.3306 16.7463V17.0216H69.6059V16.7463H69.3306ZM69.3306 2.97036V2.69507H69.0553V2.97036H69.3306ZM72.4268 2.97036H72.7021V2.69507H72.4268V2.97036ZM72.4268 34.3813V34.6566H72.7021V34.3813H72.4268ZM69.3306 34.3813H69.0553V34.6566H69.3306V34.3813ZM69.3306 19.8425H69.6059V19.5672H69.3306V19.8425ZM54.029 19.8425V19.5672H53.7537V19.8425H54.029ZM54.029 34.3813V34.6566H54.3043V34.3813H54.029ZM50.9328 34.3813H51.2081V2.97036H50.9328H50.6575V34.3813H50.9328ZM50.9328 2.97036V3.24565H54.029V2.97036V2.69507H50.9328V2.97036ZM54.029 2.97036H53.7537V16.7463H54.029H54.3043V2.97036H54.029ZM54.029 16.7463V17.0216H69.3306V16.7463V16.471H54.029V16.7463ZM69.3306 16.7463H69.6059V2.97036H69.3306H69.0553V16.7463H69.3306ZM69.3306 2.97036V3.24565H72.4268V2.97036V2.69507H69.3306V2.97036ZM72.4268 2.97036H72.1515V34.3813H72.4268H72.7021V2.97036H72.4268ZM72.4268 34.3813V34.106H69.3306V34.3813V34.6566H72.4268V34.3813ZM69.3306 34.3813H69.6059V19.8425H69.3306H69.0553V34.3813H69.3306ZM69.3306 19.8425V19.5672H54.029V19.8425V20.1178H69.3306V19.8425ZM54.029 19.8425H53.7537V34.3813H54.029H54.3043V19.8425H54.029ZM54.029 34.3813V34.106H50.9328V34.3813V34.6566H54.029V34.3813ZM96.0284 29.894L96.2654 30.0341L96.3909 29.8218L96.1936 29.6738L96.0284 29.894ZM97.7336 24.2849V24.5602H98.0089V24.2849H97.7336ZM78.887 24.2849V24.0096H78.5831L78.6131 24.3121L78.887 24.2849ZM93.5155 28.0094L93.6807 27.7891L93.4329 27.6032L93.2774 27.8713L93.5155 28.0094ZM78.9319 21.5926L78.6592 21.5549L78.6159 21.8679H78.9319V21.5926ZM94.413 21.5926V21.8679H94.7454L94.6835 21.5413L94.413 21.5926ZM96.0284 29.894L95.7914 29.754C94.0984 32.6191 90.5172 34.5547 86.5154 34.5547V34.83V35.1053C90.6805 35.1053 94.4584 33.0922 96.2654 30.0341L96.0284 29.894ZM86.5154 34.83V34.5547C83.4226 34.5547 80.8051 33.4158 78.9595 31.434C77.1125 29.4508 76.0212 26.6047 76.0212 23.1631H75.7459H75.4706C75.4706 26.7217 76.6006 29.709 78.5566 31.8093C80.5139 33.9109 83.2811 35.1053 86.5154 35.1053V34.83ZM75.7459 23.1631H76.0212C76.0212 19.7452 77.1229 16.9109 78.9971 14.9332C80.8702 12.9566 83.533 11.8164 86.6949 11.8164V11.5411V11.2658C83.3951 11.2658 80.5834 12.4589 78.5975 14.5545C76.6126 16.649 75.4706 19.6257 75.4706 23.1631H75.7459ZM86.6949 11.5411V11.8164C89.9855 11.8164 92.6669 13.0642 94.5295 15.2318C96.3957 17.4035 97.4583 20.5209 97.4583 24.2849H97.7336H98.0089C98.0089 20.4206 96.9176 17.166 94.9471 14.8729C92.9731 12.5757 90.1352 11.2658 86.6949 11.2658V11.5411ZM97.7336 24.2849V24.0096H78.887V24.2849V24.5602H97.7336V24.2849ZM78.887 24.2849L78.6131 24.3121C78.843 26.6347 79.7538 28.5608 81.1589 29.9077C82.565 31.2554 84.4519 32.0091 86.6051 32.0091V31.7338V31.4585C84.5852 31.4585 82.8374 30.7539 81.5399 29.5102C80.2415 28.2657 79.3797 26.4673 79.161 24.2578L78.887 24.2849ZM86.6051 31.7338V32.0091C89.6546 32.0091 92.3982 30.4846 93.7537 28.1475L93.5155 28.0094L93.2774 27.8713C92.0303 30.0214 89.4789 31.4585 86.6051 31.4585V31.7338ZM93.5155 28.0094L93.3504 28.2296L95.8632 30.1143L96.0284 29.894L96.1936 29.6738L93.6807 27.7891L93.5155 28.0094ZM78.9319 21.5926V21.8679H94.413V21.5926V21.3173H78.9319V21.5926ZM94.413 21.5926L94.6835 21.5413C94.2708 19.3631 93.3382 17.5667 91.9682 16.3132C90.5958 15.0576 88.8005 14.362 86.6949 14.362V14.6373V14.9126C88.6727 14.9126 90.3326 15.5631 91.5965 16.7194C92.8627 17.8779 93.7475 19.5591 94.1425 21.6438L94.413 21.5926ZM86.6949 14.6373V14.362C82.4682 14.362 79.2606 17.2065 78.6592 21.5549L78.9319 21.5926L79.2046 21.6303C79.7699 17.5426 82.7547 14.9126 86.6949 14.9126V14.6373ZM122.533 34.3813V34.6566H122.809V34.3813H122.533ZM119.437 34.3813H119.162V34.6566H119.437V34.3813ZM119.437 31.4646H119.712V30.7302L119.23 31.2836L119.437 31.4646ZM119.437 14.8168L119.23 14.9977L119.712 15.5511V14.8168H119.437ZM119.437 11.9449V11.6696H119.162V11.9449H119.437ZM122.533 11.9449H122.809V11.6696H122.533V11.9449ZM122.533 34.3813V34.106H119.437V34.3813V34.6566H122.533V34.3813ZM119.437 34.3813H119.712V31.4646H119.437H119.162V34.3813H119.437ZM119.437 31.4646L119.23 31.2836C117.448 33.3261 114.835 34.5099 111.54 34.5099V34.7852V35.0605C114.975 35.0605 117.747 33.8211 119.645 31.6455L119.437 31.4646ZM111.54 34.7852V34.5099C108.308 34.5099 105.531 33.3678 103.563 31.3829C101.594 29.3981 100.417 26.5537 100.417 23.1182H100.142H99.8666C99.8666 26.683 101.09 29.672 103.172 31.7706C105.253 33.8691 108.175 35.0605 111.54 35.0605V34.7852ZM100.142 23.1182H100.417C100.417 19.7057 101.594 16.8725 103.562 14.8931C105.531 12.9136 108.308 11.7715 111.54 11.7715V11.4962V11.2209C108.175 11.2209 105.253 12.4122 103.172 14.5049C101.091 16.5977 99.8666 19.5755 99.8666 23.1182H100.142ZM111.54 11.4962V11.7715C114.835 11.7715 117.448 12.9553 119.23 14.9977L119.437 14.8168L119.645 14.6358C117.747 12.4602 114.975 11.2209 111.54 11.2209V11.4962ZM119.437 14.8168H119.712V11.9449H119.437H119.162V14.8168H119.437ZM119.437 11.9449V12.2202H122.533V11.9449V11.6696H119.437V11.9449ZM122.533 11.9449H122.258V34.3813H122.533H122.809V11.9449H122.533ZM119.437 23.1182H119.712C119.712 20.5131 119.004 18.2578 117.663 16.6486C116.317 15.0337 114.353 14.0928 111.899 14.0928V14.368V14.6433C114.201 14.6433 116.006 15.5198 117.24 17.0011C118.479 18.4881 119.162 20.6079 119.162 23.1182H119.437ZM111.899 14.368V14.0928C106.994 14.0928 102.963 17.847 102.963 23.1182H103.238H103.513C103.513 18.1585 107.29 14.6433 111.899 14.6433V14.368ZM103.238 23.1182H102.963C102.963 28.4334 106.993 32.1886 111.899 32.1886V31.9133V31.638C107.291 31.638 103.513 28.1238 103.513 23.1182H103.238ZM111.899 31.9133V32.1886C114.353 32.1886 116.318 31.2476 117.663 29.6268C119.004 28.0118 119.712 25.7453 119.712 23.1182H119.437H119.162C119.162 25.6515 118.479 27.7826 117.24 29.2751C116.005 30.7617 114.2 31.638 111.899 31.638V31.9133ZM125.863 2.97036V2.69507H125.588V2.97036H125.863ZM128.959 2.97036H129.235V2.69507H128.959V2.97036ZM128.959 34.3813V34.6566H129.235V34.3813H128.959ZM125.863 34.3813H125.588V34.6566H125.863V34.3813ZM125.863 2.97036V3.24565H128.959V2.97036V2.69507H125.863V2.97036ZM128.959 2.97036H128.684V34.3813H128.959H129.235V2.97036H128.959ZM128.959 34.3813V34.106H125.863V34.3813V34.6566H128.959V34.3813ZM125.863 34.3813H126.138V2.97036H125.863H125.588V34.3813H125.863ZM130.946 15.0411H130.671V15.3164H130.946V15.0411ZM130.946 11.9449V11.6696H130.671V11.9449H130.946ZM133.863 11.9449V12.2202H134.138V11.9449H133.863ZM133.863 5.7076V5.43231H133.588V5.7076H133.863ZM136.959 5.7076H137.234V5.43231H136.959V5.7076ZM136.959 11.9449H136.684V12.2202H136.959V11.9449ZM143.645 11.9449H143.92V11.6696H143.645V11.9449ZM143.645 15.0411V15.3164H143.92V15.0411H143.645ZM136.959 15.0411V14.7658H136.684V15.0411H136.959ZM143.69 30.4325L143.937 30.3112L143.79 30.0109L143.523 30.2133L143.69 30.4325ZM144.902 32.9005L145.083 33.1077L145.242 32.9687L145.149 32.7792L144.902 32.9005ZM133.863 15.0411H134.138V14.7658H133.863V15.0411ZM130.946 15.0411H131.221V11.9449H130.946H130.671V15.0411H130.946ZM130.946 11.9449V12.2202H133.863V11.9449V11.6696H130.946V11.9449ZM133.863 11.9449H134.138V5.7076H133.863H133.588V11.9449H133.863ZM133.863 5.7076V5.98289H136.959V5.7076V5.43231H133.863V5.7076ZM136.959 5.7076H136.684V11.9449H136.959H137.234V5.7076H136.959ZM136.959 11.9449V12.2202H143.645V11.9449V11.6696H136.959V11.9449ZM143.645 11.9449H143.37V15.0411H143.645H143.92V11.9449H143.645ZM143.645 15.0411V14.7658H136.959V15.0411V15.3164H143.645V15.0411ZM136.959 15.0411H136.684V28.2337H136.959H137.234V15.0411H136.959ZM136.959 28.2337H136.684C136.684 29.4192 136.974 30.3708 137.575 31.0277C138.179 31.6887 139.059 32.0091 140.145 32.0091V31.7338V31.4585C139.167 31.4585 138.454 31.1731 137.981 30.6562C137.505 30.1352 137.234 29.3368 137.234 28.2337H136.959ZM140.145 31.7338V32.0091C141.473 32.0091 142.697 31.5331 143.857 30.6517L143.69 30.4325L143.523 30.2133C142.44 31.037 141.33 31.4585 140.145 31.4585V31.7338ZM143.69 30.4325L143.443 30.5538L144.654 33.0218L144.902 32.9005L145.149 32.7792L143.937 30.3112L143.69 30.4325ZM144.902 32.9005L144.72 32.6933C143.33 33.9102 141.732 34.5547 139.966 34.5547V34.83V35.1053C141.878 35.1053 143.602 34.4037 145.083 33.1077L144.902 32.9005ZM139.966 34.83V34.5547C138.243 34.5547 136.792 33.9104 135.77 32.8087C134.747 31.7054 134.138 30.1264 134.138 28.2337H133.863H133.588C133.588 30.245 134.236 31.9641 135.366 33.1831C136.498 34.4035 138.099 35.1053 139.966 35.1053V34.83ZM133.863 28.2337H134.138V15.0411H133.863H133.588V28.2337H133.863ZM133.863 15.0411V14.7658H130.946V15.0411V15.3164H133.863V15.0411ZM147.092 2.97036V2.69507H146.816V2.97036H147.092ZM150.188 2.97036H150.463V2.69507H150.188V2.97036ZM150.188 14.1886H149.912V14.9254L150.396 14.3691L150.188 14.1886ZM164.592 34.3813V34.6566H164.867V34.3813H164.592ZM161.496 34.3813H161.22V34.6566H161.496V34.3813ZM150.188 18.1374L149.934 18.0308L149.912 18.0819V18.1374H150.188ZM150.188 34.3813V34.6566H150.463V34.3813H150.188ZM147.092 34.3813H146.816V34.6566H147.092V34.3813ZM147.092 2.97036V3.24565H150.188V2.97036V2.69507H147.092V2.97036ZM150.188 2.97036H149.912V14.1886H150.188H150.463V2.97036H150.188ZM150.188 14.1886L150.396 14.3691C151.822 12.7267 153.854 11.7715 156.335 11.7715V11.4962V11.2209C153.701 11.2209 151.515 12.2401 149.98 14.0081L150.188 14.1886ZM156.335 11.4962V11.7715C158.731 11.7715 160.718 12.6623 162.11 14.2152C163.503 15.7708 164.317 18.0119 164.317 20.74H164.592H164.867C164.867 17.9038 164.02 15.5231 162.52 13.8478C161.016 12.1699 158.876 11.2209 156.335 11.2209V11.4962ZM164.592 20.74H164.317V34.3813H164.592H164.867V20.74H164.592ZM164.592 34.3813V34.106H161.496V34.3813V34.6566H164.592V34.3813ZM161.496 34.3813H161.771V20.74H161.496H161.22V34.3813H161.496ZM161.496 20.74H161.771C161.771 18.8216 161.181 17.2023 160.121 16.0599C159.06 14.9156 157.548 14.2722 155.752 14.2722V14.5475V14.8228C157.411 14.8228 158.771 15.4135 159.718 16.4343C160.666 17.457 161.22 18.934 161.22 20.74H161.496ZM155.752 14.5475V14.2722C153.043 14.2722 150.921 15.6811 149.934 18.0308L150.188 18.1374L150.442 18.244C151.339 16.1064 153.256 14.8228 155.752 14.8228V14.5475ZM150.188 18.1374H149.912V34.3813H150.188H150.463V18.1374H150.188ZM150.188 34.3813V34.106H147.092V34.3813V34.6566H150.188V34.3813ZM147.092 34.3813H147.367V2.97036H147.092H146.816V34.3813H147.092ZM179.382 31.2402L179.122 31.331L179.186 31.5155H179.382V31.2402ZM171.484 8.62433L171.744 8.53357L171.209 8.62433H171.484ZM171.484 34.3813V34.6566H171.759V34.3813H171.484ZM168.343 34.3813H168.068V34.6566H168.343V34.3813ZM168.343 2.97036V2.69507H168.068V2.97036H168.343ZM172.785 2.97036L173.045 2.87959L172.981 2.69507H172.785V2.97036ZM181.311 27.3812L181.051 27.4719L181.311 28.2161L181.571 27.4719L181.311 27.3812ZM189.837 2.97036V2.69507H189.641L189.577 2.87959L189.837 2.97036ZM194.234 2.97036H194.51V2.69507H194.234V2.97036ZM194.234 34.3813V34.6566H194.51V34.3813H194.234ZM191.138 34.3813H190.863V34.6566H191.138V34.3813ZM191.138 8.48971H191.414L190.878 8.39898L191.138 8.48971ZM183.196 31.2402V31.5155H183.391L183.456 31.331L183.196 31.2402ZM179.382 31.2402L179.641 31.1495L171.744 8.53357L171.484 8.62433L171.224 8.71509L179.122 31.331L179.382 31.2402ZM171.484 8.62433H171.209V34.3813H171.484H171.759V8.62433H171.484ZM171.484 34.3813V34.106H168.343V34.3813V34.6566H171.484V34.3813ZM168.343 34.3813H168.618V2.97036H168.343H168.068V34.3813H168.343ZM168.343 2.97036V3.24565H172.785V2.97036V2.69507H168.343V2.97036ZM172.785 2.97036L172.525 3.06113L181.051 27.4719L181.311 27.3812L181.571 27.2904L173.045 2.87959L172.785 2.97036ZM181.311 27.3812L181.571 27.4719L190.097 3.06113L189.837 2.97036L189.577 2.87959L181.051 27.2904L181.311 27.3812ZM189.837 2.97036V3.24565H194.234V2.97036V2.69507H189.837V2.97036ZM194.234 2.97036H193.959V34.3813H194.234H194.51V2.97036H194.234ZM194.234 34.3813V34.106H191.138V34.3813V34.6566H194.234V34.3813ZM191.138 34.3813H191.414V8.48971H191.138H190.863V34.3813H191.138ZM191.138 8.48971L190.878 8.39898L182.936 31.1495L183.196 31.2402L183.456 31.331L191.398 8.58045L191.138 8.48971ZM183.196 31.2402V30.9649H179.382V31.2402V31.5155H183.196V31.2402ZM219.93 34.3813V34.6566H220.205V34.3813H219.93ZM216.833 34.3813H216.558V34.6566H216.833V34.3813ZM216.833 31.4646H217.109V30.7302L216.626 31.2836L216.833 31.4646ZM216.833 14.8168L216.626 14.9977L217.109 15.5511V14.8168H216.833ZM216.833 11.9449V11.6696H216.558V11.9449H216.833ZM219.93 11.9449H220.205V11.6696H219.93V11.9449ZM219.93 34.3813V34.106H216.833V34.3813V34.6566H219.93V34.3813ZM216.833 34.3813H217.109V31.4646H216.833H216.558V34.3813H216.833ZM216.833 31.4646L216.626 31.2836C214.844 33.3261 212.231 34.5099 208.936 34.5099V34.7852V35.0605C212.372 35.0605 215.143 33.8211 217.041 31.6455L216.833 31.4646ZM208.936 34.7852V34.5099C205.704 34.5099 202.927 33.3678 200.959 31.3829C198.99 29.3981 197.813 26.5537 197.813 23.1182H197.538H197.263C197.263 26.683 198.487 29.672 200.568 31.7706C202.649 33.8691 205.571 35.0605 208.936 35.0605V34.7852ZM197.538 23.1182H197.813C197.813 19.7057 198.99 16.8725 200.959 14.8931C202.927 12.9136 205.704 11.7715 208.936 11.7715V11.4962V11.2209C205.571 11.2209 202.649 12.4122 200.568 14.5049C198.487 16.5977 197.263 19.5755 197.263 23.1182H197.538ZM208.936 11.4962V11.7715C212.231 11.7715 214.844 12.9553 216.626 14.9977L216.833 14.8168L217.041 14.6358C215.143 12.4602 212.372 11.2209 208.936 11.2209V11.4962ZM216.833 14.8168H217.109V11.9449H216.833H216.558V14.8168H216.833ZM216.833 11.9449V12.2202H219.93V11.9449V11.6696H216.833V11.9449ZM219.93 11.9449H219.654V34.3813H219.93H220.205V11.9449H219.93ZM216.833 23.1182H217.109C217.109 20.5131 216.4 18.2578 215.059 16.6486C213.714 15.0337 211.749 14.0928 209.295 14.0928V14.368V14.6433C211.597 14.6433 213.402 15.5198 214.636 17.0011C215.875 18.4881 216.558 20.6079 216.558 23.1182H216.833ZM209.295 14.368V14.0928C204.39 14.0928 200.359 17.847 200.359 23.1182H200.634H200.91C200.91 18.1585 204.687 14.6433 209.295 14.6433V14.368ZM200.634 23.1182H200.359C200.359 28.4334 204.389 32.1886 209.295 32.1886V31.9133V31.638C204.688 31.638 200.91 28.1238 200.91 23.1182H200.634ZM209.295 31.9133V32.1886C211.749 32.1886 213.714 31.2476 215.06 29.6268C216.401 28.0118 217.109 25.7453 217.109 23.1182H216.833H216.558C216.558 25.6515 215.875 27.7826 214.636 29.2751C213.402 30.7617 211.597 31.638 209.295 31.638V31.9133ZM221.913 15.0411H221.638V15.3164H221.913V15.0411ZM221.913 11.9449V11.6696H221.638V11.9449H221.913ZM224.83 11.9449V12.2202H225.105V11.9449H224.83ZM224.83 5.7076V5.43231H224.555V5.7076H224.83ZM227.926 5.7076H228.201V5.43231H227.926V5.7076ZM227.926 11.9449H227.651V12.2202H227.926V11.9449ZM234.612 11.9449H234.887V11.6696H234.612V11.9449ZM234.612 15.0411V15.3164H234.887V15.0411H234.612ZM227.926 15.0411V14.7658H227.651V15.0411H227.926ZM234.657 30.4325L234.904 30.3112L234.757 30.0109L234.49 30.2133L234.657 30.4325ZM235.869 32.9005L236.05 33.1077L236.209 32.9687L236.116 32.7792L235.869 32.9005ZM224.83 15.0411H225.105V14.7658H224.83V15.0411ZM221.913 15.0411H222.188V11.9449H221.913H221.638V15.0411H221.913ZM221.913 11.9449V12.2202H224.83V11.9449V11.6696H221.913V11.9449ZM224.83 11.9449H225.105V5.7076H224.83H224.555V11.9449H224.83ZM224.83 5.7076V5.98289H227.926V5.7076V5.43231H224.83V5.7076ZM227.926 5.7076H227.651V11.9449H227.926H228.201V5.7076H227.926ZM227.926 11.9449V12.2202H234.612V11.9449V11.6696H227.926V11.9449ZM234.612 11.9449H234.337V15.0411H234.612H234.887V11.9449H234.612ZM234.612 15.0411V14.7658H227.926V15.0411V15.3164H234.612V15.0411ZM227.926 15.0411H227.651V28.2337H227.926H228.201V15.0411H227.926ZM227.926 28.2337H227.651C227.651 29.4192 227.941 30.3708 228.542 31.0277C229.146 31.6887 230.026 32.0091 231.112 32.0091V31.7338V31.4585C230.134 31.4585 229.421 31.1731 228.948 30.6562C228.472 30.1352 228.201 29.3368 228.201 28.2337H227.926ZM231.112 31.7338V32.0091C232.44 32.0091 233.664 31.5331 234.824 30.6517L234.657 30.4325L234.49 30.2133C233.407 31.037 232.297 31.4585 231.112 31.4585V31.7338ZM234.657 30.4325L234.41 30.5538L235.621 33.0218L235.869 32.9005L236.116 32.7792L234.904 30.3112L234.657 30.4325ZM235.869 32.9005L235.687 32.6933C234.297 33.9102 232.699 34.5547 230.932 34.5547V34.83V35.1053C232.845 35.1053 234.569 34.4037 236.05 33.1077L235.869 32.9005ZM230.932 34.83V34.5547C229.21 34.5547 227.759 33.9104 226.737 32.8087C225.714 31.7054 225.105 30.1264 225.105 28.2337H224.83H224.555C224.555 30.245 225.203 31.9641 226.333 33.1831C227.465 34.4035 229.065 35.1053 230.932 35.1053V34.83ZM224.83 28.2337H225.105V15.0411H224.83H224.555V28.2337H224.83ZM224.83 15.0411V14.7658H221.913V15.0411V15.3164H224.83V15.0411ZM256.096 29.894L256.333 30.0341L256.458 29.8218L256.261 29.6738L256.096 29.894ZM257.801 24.2849V24.5602H258.076V24.2849H257.801ZM238.954 24.2849V24.0096H238.65L238.68 24.3121L238.954 24.2849ZM253.583 28.0094L253.748 27.7891L253.5 27.6032L253.345 27.8713L253.583 28.0094ZM238.999 21.5926L238.726 21.5549L238.683 21.8679H238.999V21.5926ZM254.48 21.5926V21.8679H254.812L254.751 21.5413L254.48 21.5926ZM256.096 29.894L255.859 29.754C254.166 32.6191 250.584 34.5547 246.582 34.5547V34.83V35.1053C250.748 35.1053 254.525 33.0922 256.333 30.0341L256.096 29.894ZM246.582 34.83V34.5547C243.49 34.5547 240.872 33.4158 239.027 31.434C237.18 29.4508 236.088 26.6047 236.088 23.1631H235.813H235.538C235.538 26.7217 236.668 29.709 238.624 31.8093C240.581 33.9109 243.348 35.1053 246.582 35.1053V34.83ZM235.813 23.1631H236.088C236.088 19.7452 237.19 16.9109 239.064 14.9332C240.937 12.9566 243.6 11.8164 246.762 11.8164V11.5411V11.2658C243.462 11.2658 240.65 12.4589 238.665 14.5545C236.68 16.649 235.538 19.6257 235.538 23.1631H235.813ZM246.762 11.5411V11.8164C250.053 11.8164 252.734 13.0642 254.597 15.2318C256.463 17.4035 257.525 20.5209 257.525 24.2849H257.801H258.076C258.076 20.4206 256.985 17.166 255.014 14.8729C253.04 12.5757 250.202 11.2658 246.762 11.2658V11.5411ZM257.801 24.2849V24.0096H238.954V24.2849V24.5602H257.801V24.2849ZM238.954 24.2849L238.68 24.3121C238.91 26.6347 239.821 28.5608 241.226 29.9077C242.632 31.2554 244.519 32.0091 246.672 32.0091V31.7338V31.4585C244.652 31.4585 242.905 30.7539 241.607 29.5102C240.309 28.2657 239.447 26.4673 239.228 24.2578L238.954 24.2849ZM246.672 31.7338V32.0091C249.722 32.0091 252.465 30.4846 253.821 28.1475L253.583 28.0094L253.345 27.8713C252.097 30.0214 249.546 31.4585 246.672 31.4585V31.7338ZM253.583 28.0094L253.417 28.2296L255.93 30.1143L256.096 29.894L256.261 29.6738L253.748 27.7891L253.583 28.0094ZM238.999 21.5926V21.8679H254.48V21.5926V21.3173H238.999V21.5926ZM254.48 21.5926L254.751 21.5413C254.338 19.3631 253.405 17.5667 252.035 16.3132C250.663 15.0576 248.868 14.362 246.762 14.362V14.6373V14.9126C248.74 14.9126 250.4 15.5631 251.664 16.7194C252.93 17.8779 253.815 19.5591 254.21 21.6438L254.48 21.5926ZM246.762 14.6373V14.362C242.535 14.362 239.328 17.2065 238.726 21.5549L238.999 21.5926L239.272 21.6303C239.837 17.5426 242.822 14.9126 246.762 14.9126V14.6373Z" fill="#002F34" mask="url(#path-2-outside-1_173_64)"/>
</svg>
